<mxfile host="app.diagrams.net" modified="2021-06-02T11:30:51.038Z" agent="5.0 (Windows NT 10.0; Win64; x64) AppleWebKit/537.36 (KHTML, like Gecko) Chrome/91.0.4472.77 Safari/537.36" etag="ycgxjf8KLU3sTdD-DXXC" version="14.7.3" type="github">
  <diagram id="dobOyg4vtvWRXq0azZIz" name="Page-1">
    <mxGraphModel dx="782" dy="650" grid="1" gridSize="10" guides="1" tooltips="1" connect="1" arrows="1" fold="1" page="1" pageScale="1" pageWidth="827" pageHeight="1169" math="0" shadow="0">
      <root>
        <mxCell id="0" />
        <mxCell id="1" parent="0" />
        <mxCell id="5bSi_qPv952segXHp5Zx-3" value="&lt;b&gt;EdP-GOLD&lt;/b&gt;" style="shape=cylinder3;whiteSpace=wrap;html=1;boundedLbl=1;backgroundOutline=1;size=15;fillColor=#FF8000;" parent="1" vertex="1">
          <mxGeometry x="166" y="700" width="100" height="60" as="geometry" />
        </mxCell>
        <mxCell id="5bSi_qPv952segXHp5Zx-8" value="&lt;b&gt;Sentence&lt;/b&gt;" style="rounded=0;whiteSpace=wrap;html=1;fillColor=#FF8000;" parent="1" vertex="1">
          <mxGeometry x="181" y="630" width="70" height="40" as="geometry" />
        </mxCell>
        <mxCell id="5bSi_qPv952segXHp5Zx-9" value="&lt;b&gt;Bag&lt;/b&gt;" style="shape=card;whiteSpace=wrap;html=1;fillColor=#FF8000;size=20;" parent="1" vertex="1">
          <mxGeometry x="312" y="630" width="80" height="40" as="geometry" />
        </mxCell>
        <mxCell id="5bSi_qPv952segXHp5Zx-14" value="" style="endArrow=none;dashed=1;html=1;dashPattern=1 3;strokeWidth=2;" parent="1" edge="1">
          <mxGeometry width="50" height="50" relative="1" as="geometry">
            <mxPoint x="416" y="696" as="sourcePoint" />
            <mxPoint x="416" y="616" as="targetPoint" />
          </mxGeometry>
        </mxCell>
        <mxCell id="5bSi_qPv952segXHp5Zx-15" value="" style="endArrow=none;dashed=1;html=1;dashPattern=1 3;strokeWidth=2;" parent="1" edge="1">
          <mxGeometry width="50" height="50" relative="1" as="geometry">
            <mxPoint x="167" y="695" as="sourcePoint" />
            <mxPoint x="412" y="695" as="targetPoint" />
            <Array as="points">
              <mxPoint x="227" y="695" />
            </Array>
          </mxGeometry>
        </mxCell>
        <mxCell id="5bSi_qPv952segXHp5Zx-16" value="" style="endArrow=none;dashed=1;html=1;dashPattern=1 3;strokeWidth=2;" parent="1" edge="1">
          <mxGeometry width="50" height="50" relative="1" as="geometry">
            <mxPoint x="159" y="616" as="sourcePoint" />
            <mxPoint x="419" y="616" as="targetPoint" />
            <Array as="points">
              <mxPoint x="219" y="616" />
            </Array>
          </mxGeometry>
        </mxCell>
        <mxCell id="5bSi_qPv952segXHp5Zx-17" value="" style="endArrow=none;dashed=1;html=1;dashPattern=1 3;strokeWidth=2;" parent="1" edge="1">
          <mxGeometry width="50" height="50" relative="1" as="geometry">
            <mxPoint x="160" y="696" as="sourcePoint" />
            <mxPoint x="160" y="616" as="targetPoint" />
          </mxGeometry>
        </mxCell>
        <mxCell id="5bSi_qPv952segXHp5Zx-24" value="&lt;b&gt;EdP-AUTO&lt;/b&gt;" style="shape=cylinder3;whiteSpace=wrap;html=1;boundedLbl=1;backgroundOutline=1;size=15;fillColor=#FF8000;" parent="1" vertex="1">
          <mxGeometry x="310" y="700" width="100" height="60" as="geometry" />
        </mxCell>
        <mxCell id="5bSi_qPv952segXHp5Zx-26" value="&lt;b&gt;Input Unit&lt;/b&gt;" style="text;html=1;strokeColor=none;fillColor=none;align=center;verticalAlign=middle;whiteSpace=wrap;rounded=0;" parent="1" vertex="1">
          <mxGeometry x="252.5" y="670" width="60" height="20" as="geometry" />
        </mxCell>
        <mxCell id="5bSi_qPv952segXHp5Zx-30" value="" style="endArrow=classic;html=1;" parent="1" edge="1">
          <mxGeometry width="50" height="50" relative="1" as="geometry">
            <mxPoint x="360" y="700" as="sourcePoint" />
            <mxPoint x="360" y="670" as="targetPoint" />
          </mxGeometry>
        </mxCell>
        <mxCell id="5bSi_qPv952segXHp5Zx-31" value="" style="endArrow=classic;html=1;entryX=0.5;entryY=1;entryDx=0;entryDy=0;exitX=0.5;exitY=0;exitDx=0;exitDy=0;exitPerimeter=0;" parent="1" source="5bSi_qPv952segXHp5Zx-3" target="5bSi_qPv952segXHp5Zx-8" edge="1">
          <mxGeometry width="50" height="50" relative="1" as="geometry">
            <mxPoint x="330" y="710" as="sourcePoint" />
            <mxPoint x="380" y="660" as="targetPoint" />
          </mxGeometry>
        </mxCell>
        <mxCell id="5bSi_qPv952segXHp5Zx-33" value="" style="rounded=1;whiteSpace=wrap;html=1;fillColor=#B3B3B3;" parent="1" vertex="1">
          <mxGeometry x="160" y="560" width="260" height="40" as="geometry" />
        </mxCell>
        <mxCell id="5bSi_qPv952segXHp5Zx-34" value="&lt;b&gt;Sentence Encoder&lt;/b&gt;" style="text;html=1;strokeColor=none;fillColor=none;align=center;verticalAlign=middle;whiteSpace=wrap;rounded=0;" parent="1" vertex="1">
          <mxGeometry x="220" y="570" width="140" height="20" as="geometry" />
        </mxCell>
        <mxCell id="5bSi_qPv952segXHp5Zx-35" value="&lt;b&gt;Multi-Instance Learning&lt;/b&gt;" style="rounded=1;whiteSpace=wrap;html=1;fillColor=#B3B3B3;" parent="1" vertex="1">
          <mxGeometry x="307" y="500" width="106" height="40" as="geometry" />
        </mxCell>
        <mxCell id="5bSi_qPv952segXHp5Zx-37" value="" style="rounded=1;whiteSpace=wrap;html=1;fillColor=#B3B3B3;arcSize=50;" parent="1" vertex="1">
          <mxGeometry x="176" y="470" width="80" height="40" as="geometry" />
        </mxCell>
        <mxCell id="5bSi_qPv952segXHp5Zx-39" value="" style="ellipse;whiteSpace=wrap;html=1;aspect=fixed;fillColor=#CC0000;" parent="1" vertex="1">
          <mxGeometry x="183" y="475" width="30" height="30" as="geometry" />
        </mxCell>
        <mxCell id="5bSi_qPv952segXHp5Zx-40" value="" style="ellipse;whiteSpace=wrap;html=1;aspect=fixed;fillColor=#CC0000;" parent="1" vertex="1">
          <mxGeometry x="219" y="475" width="30" height="30" as="geometry" />
        </mxCell>
        <mxCell id="5bSi_qPv952segXHp5Zx-41" value="" style="rounded=1;whiteSpace=wrap;html=1;fillColor=#B3B3B3;arcSize=50;" parent="1" vertex="1">
          <mxGeometry x="322" y="430" width="80" height="40" as="geometry" />
        </mxCell>
        <mxCell id="5bSi_qPv952segXHp5Zx-43" value="" style="ellipse;whiteSpace=wrap;html=1;aspect=fixed;fillColor=#3333FF;" parent="1" vertex="1">
          <mxGeometry x="326.5" y="435" width="30" height="30" as="geometry" />
        </mxCell>
        <mxCell id="5bSi_qPv952segXHp5Zx-44" value="" style="ellipse;whiteSpace=wrap;html=1;aspect=fixed;fillColor=#3333FF;" parent="1" vertex="1">
          <mxGeometry x="363" y="435" width="30" height="30" as="geometry" />
        </mxCell>
        <mxCell id="5bSi_qPv952segXHp5Zx-46" value="" style="rounded=1;whiteSpace=wrap;html=1;fillColor=#B3B3B3;" parent="1" vertex="1">
          <mxGeometry x="154" y="370" width="260" height="40" as="geometry" />
        </mxCell>
        <mxCell id="5bSi_qPv952segXHp5Zx-47" value="&lt;b&gt;Event&amp;nbsp; Detection Model&lt;/b&gt;" style="text;html=1;strokeColor=none;fillColor=none;align=center;verticalAlign=middle;whiteSpace=wrap;rounded=0;" parent="1" vertex="1">
          <mxGeometry x="190" y="380" width="190" height="20" as="geometry" />
        </mxCell>
        <mxCell id="5bSi_qPv952segXHp5Zx-51" value="&lt;b&gt;loss(gold)&lt;/b&gt;" style="rounded=1;whiteSpace=wrap;html=1;fillColor=#B3B3B3;" parent="1" vertex="1">
          <mxGeometry x="171" y="300" width="90" height="40" as="geometry" />
        </mxCell>
        <mxCell id="5bSi_qPv952segXHp5Zx-53" value="&lt;b&gt;loss(auto)&lt;/b&gt;" style="rounded=1;whiteSpace=wrap;html=1;fillColor=#B3B3B3;" parent="1" vertex="1">
          <mxGeometry x="315" y="300" width="90" height="40" as="geometry" />
        </mxCell>
        <mxCell id="5bSi_qPv952segXHp5Zx-57" value="" style="endArrow=classic;html=1;" parent="1" edge="1">
          <mxGeometry width="50" height="50" relative="1" as="geometry">
            <mxPoint x="216" y="630" as="sourcePoint" />
            <mxPoint x="216" y="510" as="targetPoint" />
          </mxGeometry>
        </mxCell>
        <mxCell id="5bSi_qPv952segXHp5Zx-58" value="" style="endArrow=classic;html=1;" parent="1" edge="1">
          <mxGeometry width="50" height="50" relative="1" as="geometry">
            <mxPoint x="360" y="630" as="sourcePoint" />
            <mxPoint x="360" y="540" as="targetPoint" />
          </mxGeometry>
        </mxCell>
        <mxCell id="5bSi_qPv952segXHp5Zx-66" value="" style="endArrow=classic;html=1;entryX=0.5;entryY=1;entryDx=0;entryDy=0;" parent="1" edge="1">
          <mxGeometry width="50" height="50" relative="1" as="geometry">
            <mxPoint x="361" y="500" as="sourcePoint" />
            <mxPoint x="361" y="470" as="targetPoint" />
          </mxGeometry>
        </mxCell>
        <mxCell id="5bSi_qPv952segXHp5Zx-67" value="" style="endArrow=classic;html=1;entryX=0.5;entryY=1;entryDx=0;entryDy=0;exitX=0.5;exitY=0;exitDx=0;exitDy=0;" parent="1" source="5bSi_qPv952segXHp5Zx-37" target="5bSi_qPv952segXHp5Zx-51" edge="1">
          <mxGeometry width="50" height="50" relative="1" as="geometry">
            <mxPoint x="390" y="560" as="sourcePoint" />
            <mxPoint x="440" y="510" as="targetPoint" />
          </mxGeometry>
        </mxCell>
        <mxCell id="5bSi_qPv952segXHp5Zx-68" value="" style="endArrow=classic;html=1;entryX=0.5;entryY=1;entryDx=0;entryDy=0;" parent="1" target="5bSi_qPv952segXHp5Zx-53" edge="1">
          <mxGeometry width="50" height="50" relative="1" as="geometry">
            <mxPoint x="360" y="430" as="sourcePoint" />
            <mxPoint x="440" y="510" as="targetPoint" />
          </mxGeometry>
        </mxCell>
      </root>
    </mxGraphModel>
  </diagram>
</mxfile>
